<?xml version="1.0" encoding="UTF-8"?>
<svg id="Ebene_1" data-name="Ebene 1" xmlns="http://www.w3.org/2000/svg" viewBox="0 0 2007.51 1697.81">
  <defs>
    <style>
      .cls-1 {
        fill: #fff;
        stroke: #7cfc00;
        stroke-miterlimit: 10;
        stroke-width: 17px;
      }
    </style>
  </defs>
  <path class="cls-1" d="M1338.99,1389.84c-148.53-251.36-336.98-570.27-336.98-570.27l-513.3,868.66h250.07s135.15-250.04,135.17-250.07h256.12l135.17,250.07h250.07s-79.72-134.91-176.32-298.39h0ZM955.8,1286.74l46.21-95.61s45.72,94.7,45.72,94.71l-91.93.9Z"/>
  <path id="hook_top_blue" data-name="hook top blue" class="cls-1" d="M113.73,1520.87c41.46-70.21,93.6-158.49,151.72-256.91C557.9,768.74,1002.01,16.71,1002.01,16.71l342.02,578.55c-56.42,32.88-134.1,78.16-186.72,108.83l-155.29-266.21L262.46,1688.23H14.89s37.89-64.17,98.83-167.36h0Z"/>
  <path id="ARROW_GREEN" data-name="ARROW GREEN" class="cls-1" d="M1258.66,1253.9l212.23-386.2c30.22,52.39,67.54,117.08,67.54,117.04,0,0-1.5-366.29-1.51-366.49-16.31,9.51-305.53,178.08-315.45,183.86,2.35,0,74.37.04,133.79.07-.02.02-185.79,300.72-185.79,300.72l89.18,151h0Z"/>
  <polygon class="cls-1" points="1578.28 1136.36 1577.68 990.03 1992.58 1689.31 1731.77 1689.31 1404.31 1127.59 1486.11 976.81 1578.28 1136.36"/>
</svg>