<?xml version="1.0" encoding="UTF-8"?>
<svg id="Ebene_1" data-name="Ebene 1" xmlns="http://www.w3.org/2000/svg" viewBox="0 0 2037.32 1723.02">
  <defs>
    <style>
      .cls-1 {
        fill: none;
        stroke: #7cfc00;
        stroke-miterlimit: 10;
        stroke-width: 34px;
      }
    </style>
  </defs>
  <path class="cls-1" d="M1353.88,1406.55c-148.53-251.36-336.98-570.27-336.98-570.27l-513.3,868.66h250.07s135.15-250.04,135.17-250.07h256.12l135.17,250.07h250.07s-79.72-134.91-176.32-298.39h0ZM970.69,1303.45l46.21-95.61s45.72,94.7,45.72,94.71l-91.93.9Z"/>
  <path id="hook_top_blue" data-name="hook top blue" class="cls-1" d="M128.62,1537.58c41.46-70.21,93.6-158.49,151.72-256.91C572.79,785.45,1016.9,33.42,1016.9,33.42l342.02,578.55c-56.42,32.88-134.1,78.16-186.72,108.83l-155.29-266.21L277.35,1704.94H29.78s37.89-64.17,98.83-167.36h0Z"/>
  <path id="ARROW_GREEN" data-name="ARROW GREEN" class="cls-1" d="M1273.55,1270.61l212.23-386.2c30.22,52.39,67.54,117.08,67.54,117.04,0,0-1.5-366.29-1.51-366.49-16.31,9.51-305.53,178.08-315.45,183.86,2.35,0,74.37.04,133.79.07-.02.02-185.79,300.72-185.79,300.72l89.18,151h0Z"/>
  <polygon class="cls-1" points="1593.17 1153.07 1592.57 1006.74 2007.47 1706.02 1746.66 1706.02 1419.2 1144.3 1501 993.52 1593.17 1153.07"/>
</svg>